:SAMPLES-PER-SECOND 30
:FULLY-SPECIFIED
:DEGREES
187
root  59.9191 24.3058 -2.74798 -30.334 -1.22498 -4.1887
RightUpLeg  -49.4704 -8.8418 0.73762
RightLeg  77.2143 -2.17187 -12.6491
RightFoot  2.52773 0.353266 -2.76072
RightToes  0.000482159 0.542163 -0.142577
Spine  43.0513 -2.02785 11.1062
Spine1  -0.150345 1.77689 -1.63273
HEad  -24.9517 1.87591 -3.10986
LeftShoulder1  9.24551 -13.3905 -47.7681
LeftArm  -14.29 22.7847 -22.6074
LeftForeArm  29.5074 -20.3053 -3.13891
LeftHand  -0.25398 0.0180481 5.50724
RightShoulder  5.43523 9.46695 35.9248
RightArm  -17.1999 -18.8943 33.0906
RightForeArm  0.129073 21.7634 4.77036
RightHand  -4.82932 13.3086 -29.7826
LeftUpLeg  -50.8798 3.91188 4.16503
LeftLeg  75.0233 1.72383 8.57733
LeftFoot  5.53809 -0.286351 1.70352
LeftToes  1.06245e-005 4.65855e-005 -8.18503e-006
188
root  59.8992 24.3002 -2.78087 -30.4499 -1.08347 -4.29869
RightUpLeg  -49.3139 -8.95245 0.751098
RightLeg  77.098 -2.19044 -12.6064
RightFoot  2.65619 0.360799 -2.78911
RightToes  0.000482159 0.542163 -0.142577
Spine  43.6508 -1.8585 10.861
Spine1  -0.08492 1.80904 -0.99614
HEad  -26.2269 2.09272 -3.1917
LeftShoulder1  9.30155 -13.4528 -47.8829
LeftArm  -14.3389 22.5668 -23.1857
LeftForeArm  29.3343 -19.3725 -3.136
LeftHand  -0.25398 0.0180481 5.50724
RightShoulder  5.51995 9.54264 36.3209
RightArm  -17.7248 -17.6377 33.183
RightForeArm  2.06762 19.765 4.5292
RightHand  -4.904 13.7124 -29.6118
LeftUpLeg  -50.7415 3.69384 4.16373
LeftLeg  74.8998 1.75093 8.60915
LeftFoot  5.39712 -0.32922 2.0145
LeftToes  1.06245e-005 4.65855e-005 -8.18503e-006
189
root  59.8928 24.3057 -2.80092 -30.4304 -1.02904 -4.40182
RightUpLeg  -49.2654 -9.00714 0.797905
RightLeg  76.9988 -2.21494 -12.6129
RightFoot  2.64679 0.339605 -2.61889
RightToes  0.000482159 0.542163 -0.142577
Spine  44.1766 -1.73979 10.6658
Spine1  -0.103419 1.80564 -0.438018
HEad  -27.1258 2.44315 -3.36358
LeftShoulder1  9.4114 -13.6073 -48.013
LeftArm  -13.4561 21.652 -23.4215
LeftForeArm  28.7373 -16.9715 -3.29898
LeftHand  -0.25398 0.0180481 5.50724
RightShoulder  5.61464 9.72232 36.4586
RightArm  -18.66 -16.1256 33.31
RightForeArm  2.3113 17.2253 4.44851
RightHand  -4.77776 13.8491 -28.6988
LeftUpLeg  -50.7681 3.60619 4.19518
LeftLeg  74.7838 1.78354 8.66834
LeftFoot  5.52632 -0.362827 2.22052
LeftToes  1.06245e-005 4.65855e-005 -8.18503e-006
190
root  59.9025 24.3174 -2.79482 -30.307 -1.00961 -4.401
RightUpLeg  -49.3587 -9.03179 0.787874
RightLeg  76.964 -2.22359 -12.6155
RightFoot  2.65651 0.330075 -2.53903
RightToes  0.000482159 0.542163 -0.142577
Spine  44.6006 -1.71023 10.5734
Spine1  -0.138734 1.78474 -0.178001
HEad  -27.7768 2.76715 -3.52432
LeftShoulder1  9.54044 -13.8237 -48.0649
LeftArm  -12.6124 20.4038 -23.3527
LeftForeArm  29.4318 -14.3254 -3.65911
LeftHand  -0.25398 0.0180481 5.50724
RightShoulder  5.70411 9.93989 36.4374
RightArm  -19.5365 -14.7589 33.4463
RightForeArm  1.64648 15.2392 4.45853
RightHand  -4.61076 13.6941 -27.9653
LeftUpLeg  -50.8857 3.66364 4.15091
LeftLeg  74.7386 1.78899 8.66081
LeftFoot  5.7479 -0.373293 2.25173
LeftToes  1.06245e-005 4.65855e-005 -8.18503e-006
191
root  59.9244 24.3428 -2.7598 -30.0481 -0.955287 -4.34377
RightUpLeg  -49.5594 -9.07921 0.692389
RightLeg  76.9534 -2.20777 -12.5267
RightFoot  2.69484 0.324637 -2.48575
RightToes  0.000482159 0.542163 -0.142577
Spine  44.7919 -1.78563 10.4809
Spine1  -0.0587086 1.67807 -0.186298
HEad  -28.2795 2.95872 -3.52202
LeftShoulder1  9.64597 -14.0535 -47.9597
LeftArm  -12.0157 19.1921 -23.1704
LeftForeArm  31.2198 -12.2945 -4.00506
LeftHand  -0.25398 0.0180481 5.50724
RightShoulder  5.81428 10.1684 36.5306
RightArm  -19.7802 -13.485 33.3896
RightForeArm  1.21562 14.1541 4.48403
RightHand  -4.46868 13.2966 -27.6958
LeftUpLeg  -51.0707 3.85995 3.97381
LeftLeg  74.7164 1.76517 8.54777
LeftFoot  5.72852 -0.398453 2.42312
LeftToes  1.06245e-005 4.65855e-005 -8.18503e-006
192
root  59.9581 24.38 -2.69476 -29.5917 -0.93585 -4.37211
RightUpLeg  -49.893 -9.19504 0.676093
RightLeg  76.9536 -2.17249 -12.3546
RightFoot  2.61189 0.301588 -2.3169
RightToes  0.000482159 0.542163 -0.142577
Spine  44.6793 -1.97174 10.4642
Spine1  0.136604 1.50806 -0.436162
HEad  -28.6606 3.06021 -3.28696
LeftShoulder1  9.71736 -14.2648 -47.737
LeftArm  -11.5096 18.1038 -22.998
LeftForeArm  32.7269 -11.0624 -4.25775
LeftHand  -0.25398 0.0180481 5.50724
RightShoulder  5.96632 10.3951 36.9193
RightArm  -19.1178 -12.1578 32.9224
RightForeArm  1.19191 13.9029 4.58847
RightHand  -4.34492 12.8044 -27.6577
LeftUpLeg  -51.4489 4.20434 3.81792
LeftLeg  74.7524 1.7146 8.36198
LeftFoot  5.51929 -0.436108 2.7158
LeftToes  1.06245e-005 4.65855e-005 -8.18503e-006
193
root  60.0031 24.4187 -2.6026 -28.9964 -1.03655 -4.5315
RightUpLeg  -50.3498 -9.38296 0.865557
RightLeg  76.9834 -2.12281 -12.1443
RightFoot  2.42523 0.280095 -2.18111
RightToes  0.000482159 0.542163 -0.142577
Spine  44.3961 -2.21929 10.6494
Spine1  0.328336 1.37707 -0.840058
HEad  -28.8831 3.11566 -2.88593
LeftShoulder1  9.79154 -14.4332 -47.6483
LeftArm  -11.0991 16.8888 -22.7615
LeftForeArm  33.3126 -10.3872 -4.46333
LeftHand  -0.25398 0.0180481 5.50724
RightShoulder  6.0986 10.5448 37.3888
RightArm  -17.6549 -10.7193 32.1572
RightForeArm  1.07512 14.2181 4.80354
RightHand  -4.23315 12.3914 -27.5753
LeftUpLeg  -52.0131 4.70595 3.80977
LeftLeg  74.9176 1.62705 8.10132
LeftFoot  5.29295 -0.461418 2.93561
LeftToes  1.06245e-005 4.65855e-005 -8.18503e-006
194
root  60.05 24.4567 -2.49911 -28.4344 -1.18 -4.72364
RightUpLeg  -50.7877 -9.6489 1.13952
RightLeg  77.0334 -2.05895 -11.8848
RightFoot  2.27553 0.283257 -2.24863
RightToes  0.000482159 0.542163 -0.142577
Spine  44.1299 -2.3986 10.8745
Spine1  0.508062 1.30183 -1.06399
HEad  -28.9133 3.12284 -2.43693
LeftShoulder1  9.90092 -14.53 -47.9264
LeftArm  -10.8376 15.2601 -22.3922
LeftForeArm  33.2262 -10.0349 -4.64325
LeftHand  -0.25398 0.0180481 5.50724
RightShoulder  6.13825 10.5757 37.5685
RightArm  -15.9001 -9.09376 31.427
RightForeArm  1.09042 14.6341 5.03201
RightHand  -4.09622 12.0782 -27.1822
LeftUpLeg  -52.5418 5.30329 3.84444
LeftLeg  75.1484 1.51598 7.77323
LeftFoot  5.02144 -0.485357 3.1634
LeftToes  1.06245e-005 4.65855e-005 -8.18503e-006
195
root  60.0839 24.4947 -2.40566 -28.0181 -1.2032 -4.84476
RightUpLeg  -51.0839 -10.0581 1.30176
RightLeg  77.0865 -1.98146 -11.5585
RightFoot  2.13258 0.296148 -2.42937
RightToes  0.000482159 0.542163 -0.142577
Spine  43.9343 -2.40601 10.8342
Spine1  0.74874 1.21144 -0.840054
HEad  -28.6594 3.09784 -1.92288
LeftShoulder1  10.0324 -14.5892 -48.4092
LeftArm  -10.6797 13.272 -22.0495
LeftForeArm  32.8466 -10.0297 -4.79982
LeftHand  -0.25398 0.0180481 5.50724
RightShoulder  6.11387 10.5619 37.4423
RightArm  -14.4256 -7.22713 30.8815
RightForeArm  1.77591 14.7485 5.19325
RightHand  -3.88815 11.6996 -26.4132
LeftUpLeg  -52.8922 5.85891 3.75587
LeftLeg  75.3147 1.41564 7.43992
LeftFoot  4.68791 -0.525815 3.5314
LeftToes  1.06245e-005 4.65855e-005 -8.18503e-006
196
root  60.098 24.5253 -2.33094 -27.7086 -1.05865 -4.90575
RightUpLeg  -51.2889 -10.6709 1.34788
RightLeg  77.1572 -1.89174 -11.1852
RightFoot  1.8711 0.309706 -2.59827
RightToes  0.000482159 0.542163 -0.142577
Spine  43.7903 -2.31758 10.561
Spine1  0.935225 1.09523 -0.46051
HEad  -27.9371 3.0137 -1.16873
LeftShoulder1  10.1435 -14.7192 -48.5981
LeftArm  -10.4063 11.2688 -21.9945
LeftForeArm  32.4478 -10.544 -4.93945
LeftHand  -0.25398 0.0180481 5.50724
RightShoulder  6.11751 10.6031 37.3444
RightArm  -13.4209 -5.28706 30.4389
RightForeArm  2.83713 14.5572 5.30752
RightHand  -3.64324 11.1997 -25.5405
LeftUpLeg  -53.1588 6.27823 3.55524
LeftLeg  75.4023 1.33227 7.12603
LeftFoot  4.43165 -0.565402 3.8856
LeftToes  1.06245e-005 4.65855e-005 -8.18503e-006
